<?xml version="1.0"?>
<svg width="131" height="40" xmlns="http://www.w3.org/2000/svg" xmlns:svg="http://www.w3.org/2000/svg">
 <defs>
  <linearGradient id="paint0_linear_425_166" x1="0.02" x2="1.12" y1="0.67" y2="0.3">
   <stop stop-color="#F89E00"/>
   <stop offset="1" stop-color="#DA2F68"/>
  </linearGradient>
 </defs>
 <g class="layer">
  <title>Layer 1</title>
  <circle cx="17.5" cy="19.5" fill="url(#paint0_linear_425_166)" id="svg_1" r="13.5"/>
  <path d="m10.43,15.14c4.18,-1.05 8.35,-2.09 12.53,-3.14c0.22,0.85 0.43,1.69 0.65,2.54c-3.26,0.81 -6.52,1.63 -9.78,2.44c0,0.01 0,0.01 0.01,0.02l10.08,0c0,0.04 0.01,0.07 0.01,0.1c0,2.19 0,4.38 0,6.57c0,1.22 -1.01,2.26 -2.25,2.32c-0.12,0.01 -0.24,0.01 -0.36,0.01c-2.64,0 -5.27,0 -7.91,0c-0.65,0 -1.23,-0.22 -1.7,-0.67c-0.43,-0.42 -0.67,-0.92 -0.71,-1.52c0,-0.12 -0.01,-0.23 -0.01,-0.35c0,-1.94 0,-3.88 0.01,-5.82c0,-0.2 -0.03,-0.39 -0.08,-0.59c-0.16,-0.61 -0.32,-1.23 -0.48,-1.84c0,-0.02 0,-0.04 -0.01,-0.07zm1.17,4.49l0,0.1c0,1.31 0,2.62 0.01,3.92c0,0.08 0,0.15 0.01,0.22c0.14,0.9 0.88,1.53 1.81,1.53c2.67,0 5.33,0 8,0c0.07,0 0.14,-0.01 0.22,-0.01c0.95,-0.07 1.67,-0.83 1.67,-1.77c0,-1.29 0,-2.58 0,-3.88l0,-0.11l-11.72,0zm1.87,-2.03c0.02,0.04 0.03,0.06 0.05,0.08c0.3,0.42 0.6,0.85 0.89,1.27c0.04,0.05 0.07,0.07 0.14,0.07c0.35,0 0.71,0 1.07,0c0.03,0 0.06,0 0.09,0c-0.01,-0.02 -0.01,-0.03 -0.02,-0.04c-0.31,-0.44 -0.62,-0.89 -0.93,-1.33c-0.02,-0.03 -0.07,-0.04 -0.11,-0.04c-0.19,-0.01 -0.38,-0.01 -0.58,-0.01c-0.19,0 -0.39,0 -0.6,0l0,0zm5.13,1.42c-0.02,-0.03 -0.03,-0.06 -0.04,-0.08c-0.3,-0.42 -0.61,-0.85 -0.9,-1.28c-0.04,-0.04 -0.07,-0.06 -0.13,-0.06c-0.36,0 -0.72,0 -1.09,0c-0.02,0 -0.04,0.01 -0.08,0.01c0.02,0.02 0.03,0.04 0.04,0.05c0.27,0.4 0.56,0.79 0.82,1.19c0.09,0.14 0.2,0.18 0.36,0.18c0.34,-0.02 0.67,-0.01 1.02,-0.01l0,0zm0.64,-1.42c0.03,0.04 0.04,0.06 0.05,0.08c0.3,0.42 0.6,0.85 0.9,1.28c0.04,0.05 0.07,0.06 0.13,0.06c0.36,0 0.71,0 1.07,0c0.03,0 0.06,0 0.09,0c-0.01,-0.03 -0.01,-0.04 -0.02,-0.05c-0.31,-0.44 -0.62,-0.88 -0.93,-1.32c-0.02,-0.02 -0.07,-0.04 -0.1,-0.04c-0.21,-0.01 -0.41,-0.01 -0.62,-0.01c-0.18,0 -0.37,0 -0.57,0l0,0zm1.86,-3.06c-0.02,-0.02 -0.03,-0.03 -0.04,-0.03c-0.41,-0.36 -0.82,-0.71 -1.24,-1.06c-0.02,-0.02 -0.06,-0.03 -0.09,-0.02c-0.37,0.09 -0.74,0.18 -1.1,0.28c-0.02,0 -0.03,0.01 -0.06,0.02c0.02,0.02 0.04,0.03 0.06,0.04c0.35,0.3 0.71,0.59 1.05,0.91c0.14,0.13 0.26,0.17 0.46,0.11c0.31,-0.1 0.63,-0.16 0.96,-0.25zm-5.6,1.41c-0.02,-0.02 -0.02,-0.04 -0.03,-0.04c-0.41,-0.35 -0.81,-0.69 -1.21,-1.04c-0.05,-0.04 -0.09,-0.05 -0.15,-0.03c-0.3,0.08 -0.61,0.15 -0.91,0.22c-0.07,0.02 -0.14,0.04 -0.22,0.06c0.1,0.09 0.18,0.16 0.27,0.23c0.32,0.28 0.65,0.57 0.98,0.84c0.03,0.03 0.08,0.05 0.11,0.04c0.38,-0.09 0.76,-0.19 1.16,-0.28zm0.29,-1.53c0.01,0.02 0.01,0.02 0.01,0.03c0.42,0.35 0.83,0.71 1.24,1.06c0.03,0.02 0.09,0.03 0.12,0.02c0.35,-0.09 0.7,-0.17 1.05,-0.26c0.02,-0.01 0.05,-0.02 0.09,-0.03c-0.41,-0.35 -0.81,-0.69 -1.2,-1.04c-0.09,-0.07 -0.16,-0.09 -0.26,-0.05c-0.07,0.03 -0.14,0.04 -0.21,0.05c-0.28,0.07 -0.56,0.14 -0.84,0.22l0,0zm-4.18,4.6l1.2,0c0,-0.02 0.01,-0.02 0,-0.03c-0.31,-0.45 -0.63,-0.9 -0.95,-1.35c-0.01,-0.02 -0.04,-0.03 -0.06,-0.03c-0.06,-0.01 -0.12,-0.01 -0.19,-0.01l0,1.42l0,0zm-0.09,-2.08c0.4,-0.1 0.79,-0.2 1.2,-0.3c-0.03,-0.03 -0.05,-0.04 -0.07,-0.05c-0.38,-0.33 -0.76,-0.65 -1.14,-0.98c-0.13,-0.1 -0.17,-0.11 -0.34,-0.02c0.12,0.44 0.23,0.89 0.35,1.35l0,0zm10.61,0.67c0.31,0.44 0.62,0.86 0.91,1.3c0.07,0.11 0.15,0.13 0.27,0.1l0,-1.4l-1.18,0l0,0zm0.38,-4.88c-0.38,0.1 -0.75,0.19 -1.12,0.29l-0.01,0.02c0.01,0.01 0.03,0.02 0.05,0.03c0.38,0.32 0.76,0.64 1.13,0.97c0.1,0.09 0.18,0.12 0.3,0.05c-0.11,-0.45 -0.23,-0.9 -0.35,-1.36l0,0z" fill="white" id="svg_2" transform="matrix(1 0 0 1 0 0)"/>
  <path d="m16.4,20.77c0.02,0.01 0.04,0.03 0.07,0.04c0.8,0.46 1.61,0.91 2.41,1.37c0.14,0.08 0.29,0.16 0.44,0.25c0.11,0.06 0.11,0.14 -0.01,0.21c-0.81,0.46 -1.63,0.92 -2.44,1.39c-0.14,0.07 -0.27,0.15 -0.4,0.22c-0.11,0.06 -0.19,0.02 -0.19,-0.1c0,-1.08 0,-2.16 0,-3.24c0,-0.07 0.02,-0.12 0.12,-0.14z" fill="white" id="svg_3"/>
  <text fill="url(#paint0_linear_425_166)" font-family="Helvetica" font-size="24" font-weight="bold" id="svg_9" letter-spacing="1" stroke-width="0" text-anchor="middle" x="69.05" xml:space="preserve" y="29.03">FilmZ</text>
 </g>
</svg>